<mxfile host="app.diagrams.net" modified="2023-07-04T20:46:20.152Z" agent="Mozilla/5.0 (Windows NT 10.0; Win64; x64) AppleWebKit/537.36 (KHTML, like Gecko) Chrome/114.0.0.0 Safari/537.36" version="21.5.1" etag="KXJ-ad8z7mnQoVN9xiDb" type="github">
  <diagram name="第 1 页" id="fnBkCTot6Ez0o81d7CIG">
    <mxGraphModel>
      <root>
        <mxCell id="0" />
        <mxCell id="1" parent="0" />
      </root>
    </mxGraphModel>
  </diagram>
</mxfile>
